<svg width="35" height="35" viewBox="0 0 35 35" fill="none" xmlns="http://www.w3.org/2000/svg">
<path d="M16.0413 5.83333C16.0413 6.63875 16.6943 7.29167 17.4997 7.29167C18.3051 7.29167 18.958 6.63875 18.958 5.83333C18.958 5.02792 18.3051 4.375 17.4997 4.375C16.6943 4.375 16.0413 5.02792 16.0413 5.83333Z" stroke="black" stroke-width="2"/>
<path d="M16.0413 17.5003C16.0413 18.3057 16.6943 18.9587 17.4997 18.9587C18.3051 18.9587 18.958 18.3057 18.958 17.5003C18.958 16.6949 18.3051 16.042 17.4997 16.042C16.6943 16.042 16.0413 16.6949 16.0413 17.5003Z" stroke="black" stroke-width="2"/>
<path d="M16.0413 29.1663C16.0413 29.9718 16.6943 30.6247 17.4997 30.6247C18.3051 30.6247 18.958 29.9718 18.958 29.1663C18.958 28.3609 18.3051 27.708 17.4997 27.708C16.6943 27.708 16.0413 28.3609 16.0413 29.1663Z" stroke="black" stroke-width="2"/>
</svg>
