<svg width="123" height="15" viewBox="0 0 123 15" fill="none" xmlns="http://www.w3.org/2000/svg">
<path fill-rule="evenodd" clip-rule="evenodd" d="M8.99531 5.86125L7.5 0.9375L6.00469 5.86125H0.9375L5.03719 9.04875L3.51562 14.0625L7.5 10.9641L11.4844 14.0625L9.96281 9.04875L14.0625 5.86125H8.99531Z" fill="inherit"/>
<path fill-rule="evenodd" clip-rule="evenodd" d="M23.9953 5.86125L22.5 0.9375L21.0047 5.86125H15.9375L20.0372 9.04875L18.5156 14.0625L22.5 10.9641L26.4844 14.0625L24.9628 9.04875L29.0625 5.86125H23.9953Z" fill="inherit"/>
<path fill-rule="evenodd" clip-rule="evenodd" d="M38.9953 5.86125L37.5 0.9375L36.0047 5.86125H30.9375L35.0372 9.04875L33.5156 14.0625L37.5 10.9641L41.4844 14.0625L39.9628 9.04875L44.0625 5.86125H38.9953Z" fill="inherit"/>
<path fill-rule="evenodd" clip-rule="evenodd" d="M53.9953 5.86125L52.5 0.9375L51.0047 5.86125H45.9375L50.0372 9.04875L48.5156 14.0625L52.5 10.9641L56.4844 14.0625L54.9628 9.04875L59.0625 5.86125H53.9953Z" fill="inherit"/>
<path fill-rule="evenodd" clip-rule="evenodd" d="M68.9953 5.86125L67.5 0.9375L66.0047 5.86125H60.9375L65.0372 9.04875L63.5156 14.0625L67.5 10.9641L71.4844 14.0625L69.9628 9.04875L74.0625 5.86125H68.9953Z" fill="inherit"/>
<path d="M79.7969 8.44189V8.35889C79.7969 7.66227 79.8717 7.03076 80.0215 6.46436C80.1745 5.89469 80.373 5.39665 80.6172 4.97021C80.8613 4.54053 81.1217 4.18571 81.3984 3.90576C81.6784 3.62256 81.9469 3.41911 82.2041 3.29541L82.4385 3.96924C82.2497 4.10921 82.0609 4.3029 81.8721 4.55029C81.6865 4.79769 81.5156 5.10205 81.3594 5.46338C81.2064 5.82145 81.0827 6.24137 80.9883 6.72314C80.8971 7.20166 80.8516 7.74365 80.8516 8.34912V8.45166C80.8516 9.05713 80.8971 9.60075 80.9883 10.0825C81.0827 10.561 81.2064 10.981 81.3594 11.3423C81.5156 11.7036 81.6865 12.0096 81.8721 12.2603C82.0609 12.5142 82.2497 12.716 82.4385 12.8657L82.2041 13.5103C81.9469 13.3833 81.6784 13.1782 81.3984 12.895C81.1217 12.6151 80.8613 12.2603 80.6172 11.8306C80.373 11.4041 80.1745 10.9077 80.0215 10.3413C79.8717 9.77165 79.7969 9.13851 79.7969 8.44189ZM89.5332 7.1626H90.2363C90.5098 7.1626 90.736 7.1154 90.915 7.021C91.0973 6.9266 91.2324 6.79639 91.3203 6.63037C91.4082 6.46436 91.4521 6.27393 91.4521 6.05908C91.4521 5.83447 91.4115 5.64242 91.3301 5.48291C91.252 5.32015 91.1315 5.19482 90.9688 5.10693C90.8092 5.01904 90.6058 4.9751 90.3584 4.9751C90.1501 4.9751 89.9613 5.01742 89.792 5.10205C89.626 5.18343 89.4941 5.30062 89.3965 5.45361C89.2988 5.60335 89.25 5.78239 89.25 5.99072H88.0684C88.0684 5.61312 88.1676 5.27783 88.3662 4.98486C88.5648 4.69189 88.835 4.4624 89.1768 4.29639C89.5218 4.12712 89.9092 4.04248 90.3389 4.04248C90.7979 4.04248 91.1982 4.11898 91.54 4.27197C91.8851 4.42171 92.1536 4.64632 92.3457 4.9458C92.5378 5.24528 92.6338 5.61637 92.6338 6.05908C92.6338 6.2609 92.5866 6.46598 92.4922 6.67432C92.3978 6.88265 92.2578 7.07308 92.0723 7.24561C91.8867 7.41488 91.6556 7.55322 91.3789 7.66064C91.1022 7.76481 90.7816 7.81689 90.417 7.81689H89.5332V7.1626ZM89.5332 8.08057V7.43604H90.417C90.8337 7.43604 91.1885 7.48486 91.4814 7.58252C91.7777 7.68018 92.0186 7.81527 92.2041 7.98779C92.3896 8.15706 92.5247 8.35075 92.6094 8.56885C92.6973 8.78695 92.7412 9.01807 92.7412 9.26221C92.7412 9.59424 92.681 9.89046 92.5605 10.1509C92.4434 10.408 92.2757 10.6261 92.0576 10.8052C91.8395 10.9842 91.584 11.1193 91.291 11.2104C91.0013 11.3016 90.6855 11.3472 90.3438 11.3472C90.0378 11.3472 89.7448 11.3049 89.4648 11.2202C89.1849 11.1356 88.9342 11.0103 88.7129 10.8442C88.4915 10.675 88.3158 10.465 88.1855 10.2144C88.0586 9.96045 87.9951 9.66748 87.9951 9.33545H89.1719C89.1719 9.54704 89.2207 9.73421 89.3184 9.89697C89.4193 10.0565 89.5592 10.1818 89.7383 10.2729C89.9206 10.3641 90.1289 10.4097 90.3633 10.4097C90.6107 10.4097 90.8239 10.3657 91.0029 10.2778C91.182 10.1899 91.3187 10.0597 91.4131 9.88721C91.5107 9.71468 91.5596 9.50635 91.5596 9.26221C91.5596 8.98551 91.5059 8.7609 91.3984 8.58838C91.291 8.41585 91.138 8.2889 90.9395 8.20752C90.7409 8.12288 90.5065 8.08057 90.2363 8.08057H89.5332ZM98.4688 7.09912V8.26123C98.4688 8.81787 98.4134 9.29313 98.3027 9.68701C98.1953 10.0776 98.0391 10.395 97.834 10.6392C97.6289 10.8833 97.3831 11.0623 97.0967 11.1763C96.8135 11.2902 96.4961 11.3472 96.1445 11.3472C95.8646 11.3472 95.6042 11.3114 95.3633 11.2397C95.1257 11.1681 94.9108 11.0558 94.7188 10.9028C94.5267 10.7498 94.3623 10.5529 94.2256 10.312C94.0921 10.0679 93.988 9.77653 93.9131 9.43799C93.8415 9.09945 93.8057 8.70719 93.8057 8.26123V7.09912C93.8057 6.53923 93.861 6.06722 93.9717 5.68311C94.0824 5.29574 94.2402 4.98161 94.4453 4.74072C94.6504 4.49658 94.8945 4.31917 95.1777 4.2085C95.4642 4.09782 95.7832 4.04248 96.1348 4.04248C96.418 4.04248 96.6784 4.07829 96.916 4.1499C97.1569 4.21826 97.3717 4.32731 97.5605 4.47705C97.7526 4.62679 97.9154 4.8221 98.0488 5.06299C98.1855 5.30062 98.2897 5.5887 98.3613 5.92725C98.4329 6.26253 98.4688 6.65316 98.4688 7.09912ZM97.292 8.42725V6.92334C97.292 6.64014 97.2757 6.39111 97.2432 6.17627C97.2106 5.95817 97.1618 5.77425 97.0967 5.62451C97.0348 5.47152 96.9567 5.34782 96.8623 5.25342C96.7679 5.15576 96.6605 5.08577 96.54 5.04346C96.4196 4.99788 96.2845 4.9751 96.1348 4.9751C95.9525 4.9751 95.7897 5.0109 95.6465 5.08252C95.5033 5.15088 95.3828 5.26156 95.2852 5.41455C95.1875 5.56755 95.1126 5.76937 95.0605 6.02002C95.0117 6.26742 94.9873 6.56852 94.9873 6.92334V8.42725C94.9873 8.7137 95.0036 8.96598 95.0361 9.18408C95.0687 9.40218 95.1175 9.58936 95.1826 9.74561C95.2477 9.8986 95.3258 10.0256 95.417 10.1265C95.5114 10.2241 95.6188 10.2957 95.7393 10.3413C95.863 10.3869 95.998 10.4097 96.1445 10.4097C96.3301 10.4097 96.4945 10.3739 96.6377 10.3022C96.7809 10.2306 96.9014 10.1167 96.999 9.96045C97.0967 9.80094 97.1699 9.59424 97.2188 9.34033C97.2676 9.08643 97.292 8.78206 97.292 8.42725ZM104.152 7.09912V8.26123C104.152 8.81787 104.097 9.29313 103.986 9.68701C103.879 10.0776 103.723 10.395 103.518 10.6392C103.312 10.8833 103.067 11.0623 102.78 11.1763C102.497 11.2902 102.18 11.3472 101.828 11.3472C101.548 11.3472 101.288 11.3114 101.047 11.2397C100.809 11.1681 100.594 11.0558 100.402 10.9028C100.21 10.7498 100.046 10.5529 99.9092 10.312C99.7757 10.0679 99.6715 9.77653 99.5967 9.43799C99.5251 9.09945 99.4893 8.70719 99.4893 8.26123V7.09912C99.4893 6.53923 99.5446 6.06722 99.6553 5.68311C99.766 5.29574 99.9238 4.98161 100.129 4.74072C100.334 4.49658 100.578 4.31917 100.861 4.2085C101.148 4.09782 101.467 4.04248 101.818 4.04248C102.102 4.04248 102.362 4.07829 102.6 4.1499C102.84 4.21826 103.055 4.32731 103.244 4.47705C103.436 4.62679 103.599 4.8221 103.732 5.06299C103.869 5.30062 103.973 5.5887 104.045 5.92725C104.117 6.26253 104.152 6.65316 104.152 7.09912ZM102.976 8.42725V6.92334C102.976 6.64014 102.959 6.39111 102.927 6.17627C102.894 5.95817 102.845 5.77425 102.78 5.62451C102.718 5.47152 102.64 5.34782 102.546 5.25342C102.451 5.15576 102.344 5.08577 102.224 5.04346C102.103 4.99788 101.968 4.9751 101.818 4.9751C101.636 4.9751 101.473 5.0109 101.33 5.08252C101.187 5.15088 101.066 5.26156 100.969 5.41455C100.871 5.56755 100.796 5.76937 100.744 6.02002C100.695 6.26742 100.671 6.56852 100.671 6.92334V8.42725C100.671 8.7137 100.687 8.96598 100.72 9.18408C100.752 9.40218 100.801 9.58936 100.866 9.74561C100.931 9.8986 101.009 10.0256 101.101 10.1265C101.195 10.2241 101.302 10.2957 101.423 10.3413C101.547 10.3869 101.682 10.4097 101.828 10.4097C102.014 10.4097 102.178 10.3739 102.321 10.3022C102.465 10.2306 102.585 10.1167 102.683 9.96045C102.78 9.80094 102.854 9.59424 102.902 9.34033C102.951 9.08643 102.976 8.78206 102.976 8.42725ZM106.457 3.74951V11.2495H105.275V3.74951H106.457ZM109.738 5.96631L107.438 8.51514L106.179 9.8042L105.871 8.80811L106.823 7.63135L108.317 5.96631H109.738ZM108.571 11.2495L106.857 8.76904L107.6 7.94385L109.934 11.2495H108.571ZM115.075 7.35303V8.4126H110.202V7.35303H115.075ZM113.21 5.36084V10.5366H112.072V5.36084H113.21ZM118.312 8.35889V8.44189C118.312 9.12874 118.234 9.75537 118.078 10.3218C117.925 10.8882 117.725 11.3862 117.478 11.8159C117.233 12.2456 116.968 12.6037 116.682 12.8901C116.398 13.1766 116.127 13.3833 115.866 13.5103L115.627 12.8657C115.816 12.7225 116.003 12.5256 116.188 12.2749C116.377 12.0275 116.548 11.7199 116.701 11.3521C116.857 10.9875 116.981 10.5643 117.072 10.0825C117.167 9.60075 117.214 9.05713 117.214 8.45166V8.34912C117.214 7.74365 117.165 7.20003 117.067 6.71826C116.973 6.23324 116.846 5.81006 116.687 5.44873C116.527 5.08415 116.354 4.77653 116.169 4.52588C115.983 4.27523 115.803 4.07992 115.627 3.93994L115.866 3.29541C116.127 3.41911 116.398 3.62419 116.682 3.91064C116.968 4.1971 117.233 4.5568 117.478 4.98975C117.725 5.41943 117.925 5.91748 118.078 6.48389C118.234 7.05029 118.312 7.67529 118.312 8.35889Z" fill="inherit"/>
<path d="M85.4724 12.3073H84.3613C84.214 12.3068 84.073 12.2463 83.9689 12.139C83.8648 12.0316 83.8061 11.8862 83.8057 11.7344V9.72917C83.6585 9.72871 83.5174 9.66821 83.4133 9.56086C83.3093 9.45352 83.2506 9.30806 83.2501 9.15625V7.4375C83.2481 7.32407 83.2683 7.21138 83.3094 7.10616C83.3506 7.00095 83.4119 6.90538 83.4897 6.82516C83.5675 6.74493 83.6602 6.68171 83.7622 6.63927C83.8642 6.59682 83.9735 6.57603 84.0835 6.57813H85.7501C85.8601 6.57603 85.9694 6.59682 86.0714 6.63927C86.1735 6.68171 86.2661 6.74493 86.3439 6.82516C86.4217 6.90538 86.483 7.00095 86.5242 7.10616C86.5653 7.21138 86.5855 7.32407 86.5835 7.4375V9.15625C86.583 9.30806 86.5244 9.45352 86.4203 9.56086C86.3162 9.66821 86.1751 9.72871 86.0279 9.72917V11.7344C86.0275 11.8862 85.9688 12.0316 85.8647 12.139C85.7606 12.2463 85.6196 12.3068 85.4724 12.3073ZM84.0835 7.15104C84.0464 7.14875 84.0093 7.15458 83.9746 7.16816C83.9399 7.18175 83.9084 7.20277 83.8821 7.22984C83.8559 7.25691 83.8355 7.28942 83.8223 7.32522C83.8091 7.36101 83.8035 6.94989 83.8057 6.98811L84.9168 7.10616V9.15625V7.15104L86.0714 6.98811C86.0737 6.94989 86.0245 7.36101 86.0113 7.32522C85.9981 7.28942 85.9778 7.25691 85.9515 7.22984C85.9253 7.20277 85.8937 7.18175 85.859 7.16816C85.8243 7.15458 85.7872 7.14875 85.7501 7.15104H84.0835ZM84.9168 6.29167C84.697 6.29167 84.4822 6.22447 84.2995 6.09856C84.1168 5.97265 83.9744 5.7937 83.8903 5.58433C83.8062 5.37495 83.7842 5.14456 83.827 4.92229C83.8699 4.70002 83.9757 4.49586 84.1311 4.33561C84.2865 4.17536 84.4845 4.06623 84.7 4.02202C84.9156 3.97781 85.139 4.0005 85.342 4.08722C85.545 4.17395 85.7186 4.32081 85.8407 4.50924C85.9628 4.69767 86.0279 4.91921 86.0279 5.14583C86.027 5.44945 85.9097 5.74037 85.7015 5.95506C85.4933 6.16975 85.2112 6.29076 84.9168 6.29167ZM84.9168 5.79688C84.8069 5.79688 83.8903 4.85283 84.1311 4.68686C84.0398 4.74982 84.4456 4.8219 84.4035 4.92659C84.6409 4.33561 86.0065 5.0347 86.0279 5.14583C86.0494 5.25697 85.3947 5.71675 85.4724 5.79688C85.5501 5.877 84.7007 5.68564 84.8084 5.70774C84.9162 5.72985 85.0279 5.7185 85.1294 5.67514C84.9168 5.14583 85.3177 5.55835 85.3787 5.46413C85.4398 5.36991 84.0835 5.25915 84.0835 5.14583C84.083 4.99403 85.1251 4.33854 85.3092 4.74122C85.2051 4.63388 85.064 5.79733 84.9168 5.79688Z" fill="inherit"/>
</svg>
